.
 
http://www.scenetime.com    -   SceneTime [ We been having it ] !!!


How come you press harder on a remote control when you know the battery is dead? so you better seed to get speed ;)

        Seed back for speed


...................................NFO:.................................................[pre][img]http://i824.photobucket.com/albums/zz161/akosipalos/5daysposter.png[/img]   
            
*******************************************************************************
             5.Days.of.War.2011.PROPER.480p.BRRip.XviD.AC3-PRESTiGE
*******************************************************************************

-------------------------------------------------------------------------------
                              General Information
-------------------------------------------------------------------------------

TiTLE............: 5.Days.of.War.2011.PROPER.480p.BRRip.XviD.AC3-PRESTiGE

iMDB.............: http://www.imdb.com/title/tt1486193/

GENRE............: Action | Drama | War

LANGUAGE.........: English

FORMAT...........: AVi

SOURCE...........: 720p.BluRay.x264-NODLABS MANY THANKS!!!

FiLE SiZE........: 1.96 GB

SAMPLE iNCLUDED..: YES

SUBS.............: English Sub (if needed)

DURATiON.........: 1h 53mn

ENCODED by.......: [color=maroon]akosipalos[/color]



ViDEO iNFO:

ID                               : 0
Format                           : MPEG-4 Visual
Codec ID                         : XVID
Codec ID/Hint                    : XviD
Duration                         : 1h 53mn
Bit rate                         : 1 040 Kbps
Width                            : 720 pixels
Height                           : 304 pixels
Display aspect ratio             : 2.35:1
Frame rate                       : 23.976 fps
Color space                      : YUV
Chroma subsampling               : 4:2:0
Compression mode                 : Lossy
Bits/(Pixel*Frame)               : 0.198
Stream size                      : 841 MiB (42%)


AUDiO iNFO:

ID                               : 1
Format                           : AC-3
Format/Info                      : Audio Coding 3
Codec ID                         : 2000
Duration                         : 1h 53mn
Bit rate mode                    : Constant
Bit rate                         : 448 Kbps
Channel(s)                       : 6 channels
Sampling rate                    : 48.0 KHz
Compression mode                 : Lossy
Stream size                      : 178 MiB (9%)
Alignment                        : Aligned on interleaves
Interleave, duration             : 64 ms (1.53 video frames)



-------------------------------------------------------------------------------
                                 PLOT:
-------------------------------------------------------------------------------


A drama set centered around the war between Russia and Georgia, and focused on an American journalist, his cameraman, and a Georgian native who become caught in the crossfire. 


-------------------------------------------------------------------------------
                                 CAST:
-------------------------------------------------------------------------------


. Rupert Friend as Thomas Anders

. Val Kilmer as Dutchman

. Andy Garcia as President of Georgia

. Dean Cain as Chris Bailot

. Emmanuelle Chriqui as Tatia

. Heather Graham as Miriam

. Mikko Nousiainen as Daniil

. Richard Coyle as Sebastian Ganz

. Antje Traue as Zoe

. Rade Serbedzija as Col. Demidov 


-------------------------------------------------------------------------------
                               SCREENS:
-------------------------------------------------------------------------------


[img]http://i824.photobucket.com/albums/zz161/akosipalos/5d1.png[/img]

[img]http://i824.photobucket.com/albums/zz161/akosipalos/5d2.png[/img]

[img]http://i824.photobucket.com/albums/zz161/akosipalos/5d3.png[/img]

[img]http://i824.photobucket.com/albums/zz161/akosipalos/5d4.png[/img]

[img]http://i824.photobucket.com/albums/zz161/akosipalos/5d5.png[/img]


-------------------------------------------------------------------------------
                             Release Notes
-------------------------------------------------------------------------------

WE DONT RELEASE EVERYTHING TO OTHERS SITES YOU WANT MORE OF OUR STUFF COME FIND US AT .......

WE ARE LOOKING FOR SUPPLIERS BLURAY CAM R5 PRE RETAIL DVD GOT SOMETHING WE MIGHT LIKE WHEN YOU FIND US TELL US.......

ENCODER'S - ANYTHING AT ALL EMAIL US AT..... prestige@hushmail.me

** ** ** ** ** ** ** ** **

PRESTiGE is the level of respect at which one is regarded by others....RIzE Above Or Sink Below...


-------------------------------------------------------------------------------
                                 GREETZ:
-------------------------------------------------------------------------------


Twisted ,bigguy, Selina, 6of1, CTFX, HiTM4N, bedsy, mtyy, whitestag13, paranoid53, PA4U2C, phules, tac, BMB, Flawl3ss, smelise, fifer, akosipalos, DiLLoN, IMAGINE,"the squad" , floridajoe and To All Encoders Past And Present......


-------------------------------------------------------------------------------
Generated with Cool NFO Creator - http://fly.to/coolbeans
-------------------------------------------------------------------------------
[/pre]